<?xml version="1.0" encoding="utf-8"?>
<!-- Generator: Adobe Illustrator 16.0.0, SVG Export Plug-In . SVG Version: 6.00 Build 0)  -->
<!DOCTYPE svg PUBLIC "-//W3C//DTD SVG 1.1//EN" "http://www.w3.org/Graphics/SVG/1.1/DTD/svg11.dtd">
<svg version="1.1" id="Layer_1" xmlns="http://www.w3.org/2000/svg" xmlns:xlink="http://www.w3.org/1999/xlink" x="0px" y="0px"
	 width="640px" height="480px" viewBox="0 0 640 480" enable-background="new 0 0 640 480" xml:space="preserve">
<g>
	<g>
		<defs>
			<rect id="SVGID_1_" x="53.428" y="88.667" width="526.804" height="298.522"/>
		</defs>
		<clipPath id="SVGID_2_">
			<use xlink:href="#SVGID_1_"  overflow="visible"/>
		</clipPath>
		<path clip-path="url(#SVGID_2_)" fill="#18AADC" d="M289.742,258.11c-0.282,0-0.547-0.082-0.775-0.227
			c-0.226-0.146-0.409-0.357-0.524-0.613l-4.614-10.278l-4.616-10.279h-19.494h-19.494l-4.614,10.279l-4.614,10.278
			c-0.116,0.256-0.301,0.467-0.526,0.613c-0.225,0.145-0.493,0.227-0.773,0.227h-2.715h-2.714c-0.243,0-0.476-0.062-0.681-0.173
			c-0.206-0.112-0.383-0.273-0.515-0.477c-0.131-0.202-0.206-0.432-0.225-0.665c-0.018-0.232,0.023-0.47,0.121-0.689l16.551-36.92
			l16.551-36.92c0.116-0.256,0.301-0.465,0.526-0.613c0.226-0.146,0.493-0.229,0.773-0.229h2.403h2.4
			c0.281,0,0.549,0.083,0.776,0.229c0.226,0.146,0.411,0.356,0.524,0.614l16.499,36.92l16.499,36.918
			c0.098,0.222,0.139,0.459,0.122,0.691c-0.02,0.233-0.095,0.461-0.226,0.663c-0.131,0.205-0.311,0.366-0.515,0.479
			c-0.206,0.111-0.439,0.171-0.68,0.171h-2.716H289.742L289.742,258.11z M276.051,229.252l-8.142-18.065l-8.144-18.065
			l-8.188,18.065l-8.188,18.065h16.332H276.051z"/>
	</g>
	<g>
		<defs>
			<rect id="SVGID_3_" x="53.428" y="88.667" width="526.804" height="298.522"/>
		</defs>
		<clipPath id="SVGID_4_">
			<use xlink:href="#SVGID_3_"  overflow="visible"/>
		</clipPath>
		<path clip-path="url(#SVGID_4_)" fill="#18AADC" d="M324.828,279.507c-4.045,0-7.989-0.659-11.439-1.6
			c-3.446-0.94-6.399-2.164-8.459-3.294c-0.228-0.125-0.413-0.309-0.54-0.524c-0.129-0.216-0.199-0.466-0.199-0.725v-2.571v-2.569
			c0-0.256,0.069-0.505,0.195-0.719c0.125-0.216,0.306-0.395,0.532-0.522c0.108-0.06,0.222-0.105,0.339-0.137
			c0.118-0.028,0.235-0.044,0.356-0.044c0.129,0,0.256,0.018,0.382,0.052c0.125,0.035,0.247,0.087,0.36,0.156
			c2.527,1.544,5.489,2.777,8.608,3.623c3.119,0.847,6.394,1.308,9.551,1.308c8.831,0,13.904-2.751,16.772-6.32
			c2.865-3.571,3.524-7.96,3.524-11.24v-1.432v-1.431c-2.39,2.377-5.23,4.207-8.423,5.446c-3.191,1.237-6.73,1.881-10.518,1.881
			c-7.667,0-14.394-2.96-19.201-7.882c-4.809-4.923-7.702-11.81-7.702-19.658c0-7.693,2.955-14.552,7.796-19.488
			c4.84-4.935,11.564-7.948,19.106-7.948c3.772,0,7.305,0.651,10.497,1.905c3.189,1.254,6.04,3.108,8.443,5.515v-2.37v-2.37
			c0-0.392,0.158-0.748,0.417-1.006c0.258-0.257,0.612-0.416,1.008-0.416h2.558h2.558c0.394,0,0.75,0.159,1.006,0.416
			c0.259,0.258,0.419,0.614,0.419,1.006v23.914v23.915c0,7.632-2.743,13.913-7.607,18.289
			C340.304,277.042,333.316,279.507,324.828,279.507 M326.918,211.437c-5.667,0-10.638,2.136-14.19,5.687
			c-3.554,3.55-5.69,8.518-5.69,14.182c0,5.786,2.089,10.78,5.621,14.327c3.529,3.546,8.5,5.647,14.259,5.647
			c3.872,0,7.558-1.074,10.668-2.979c3.109-1.904,5.647-4.643,7.226-7.974v-8.918v-8.916c-1.592-3.363-4.136-6.127-7.247-8.051
			C334.454,212.519,330.776,211.437,326.918,211.437"/>
	</g>
	<g>
		<defs>
			<rect id="SVGID_5_" x="53.428" y="88.667" width="526.804" height="298.522"/>
		</defs>
		<clipPath id="SVGID_6_">
			<use xlink:href="#SVGID_5_"  overflow="visible"/>
		</clipPath>
		<path clip-path="url(#SVGID_6_)" fill="#18AADC" d="M386.547,259.369c-6.688,0-11.873-1.979-15.387-5.756s-5.356-9.35-5.356-16.54
			v-15.261v-15.261c0-0.393,0.16-0.749,0.418-1.006c0.257-0.257,0.613-0.417,1.006-0.417h2.558h2.559
			c0.395,0,0.749,0.16,1.008,0.417c0.258,0.257,0.416,0.614,0.416,1.006v14.737v14.737c0,5.273,1.174,9.189,3.555,11.792
			c2.378,2.6,5.965,3.88,10.791,3.88c3.568,0,7.247-1.311,10.456-3.267c3.212-1.959,5.952-4.566,7.648-7.157v-17.36v-17.361
			c0-0.393,0.16-0.749,0.416-1.006c0.259-0.257,0.613-0.417,1.009-0.417h2.558h2.558c0.393,0,0.75,0.16,1.006,0.417
			c0.258,0.257,0.418,0.614,0.418,1.006v25.067v25.069c0,0.393-0.16,0.748-0.418,1.006c-0.256,0.259-0.613,0.416-1.006,0.416H410.2
			h-2.558c-0.396,0-0.75-0.157-1.009-0.416c-0.256-0.258-0.416-0.613-0.416-1.006v-2.505v-2.506
			c-1.756,1.633-4.271,3.554-7.548,5.07C395.392,258.263,391.354,259.369,386.547,259.369"/>
	</g>
	<g>
		<defs>
			<rect id="SVGID_7_" x="53.428" y="88.667" width="526.804" height="298.522"/>
		</defs>
		<clipPath id="SVGID_8_">
			<use xlink:href="#SVGID_7_"  overflow="visible"/>
		</clipPath>
		<path clip-path="url(#SVGID_8_)" fill="#18AADC" d="M443.668,259.369c-2.686,0-5.281-0.393-7.672-1.145
			c-2.392-0.752-4.577-1.86-6.443-3.292c-2.133-1.636-3.764-3.617-4.86-5.882c-1.097-2.261-1.66-4.807-1.66-7.57
			c0-5.237,2.271-9.684,6.17-12.821c3.897-3.138,9.422-4.966,15.929-4.966c3.245,0,6.339,0.354,9.312,1.073
			c2.97,0.719,5.82,1.801,8.582,3.256v-1.977v-1.978c0-4.191-1.354-7.35-4.047-9.459c-2.693-2.11-6.724-3.173-12.071-3.173
			c-4.046,0-7.619,0.975-10.394,2.098c-2.775,1.124-4.751,2.397-5.603,2.994c-0.123,0.085-0.255,0.149-0.392,0.192
			c-0.139,0.043-0.281,0.065-0.426,0.065c-0.111,0-0.224-0.013-0.335-0.041c-0.11-0.027-0.218-0.066-0.322-0.12
			c-0.235-0.123-0.426-0.306-0.559-0.525c-0.134-0.218-0.207-0.472-0.207-0.737v-2.57v-2.569c0-0.239,0.061-0.471,0.172-0.675
			c0.108-0.205,0.268-0.383,0.469-0.515c1.463-0.964,3.77-2.255,6.875-3.306c3.104-1.049,7.006-1.858,11.661-1.858
			c7.245,0,13.031,1.849,17.007,5.245c3.975,3.396,6.138,8.341,6.138,14.534v11.012v11.015c0,1.754,0.364,3.155,1.034,4.117
			c0.671,0.962,1.646,1.486,2.868,1.486c0.455,0,0.864-0.037,1.239-0.116c0.376-0.079,0.722-0.198,1.045-0.36
			c0.101-0.052,0.206-0.091,0.314-0.115c0.105-0.025,0.216-0.037,0.325-0.037c0.13,0,0.259,0.018,0.384,0.053
			c0.127,0.034,0.249,0.088,0.362,0.157c0.21,0.132,0.38,0.311,0.495,0.521c0.118,0.208,0.182,0.445,0.182,0.692v2.099v2.099
			c0,0.24-0.062,0.476-0.176,0.682c-0.111,0.206-0.277,0.386-0.481,0.515c-0.732,0.471-1.563,0.736-2.413,0.885
			s-1.72,0.18-2.531,0.18c-1.857,0-3.88-0.475-5.626-1.591c-1.744-1.117-3.213-2.876-3.965-5.441
			c-2.773,2.613-5.87,4.582-9.272,5.895C451.372,258.708,447.665,259.369,443.668,259.369 M446.487,231.051
			c-4.785,0-8.605,0.964-11.23,2.737c-2.626,1.773-4.054,4.354-4.054,7.586c0,3.845,1.8,6.453,4.438,8.097
			c2.641,1.646,6.124,2.333,9.489,2.333c3.983,0,7.582-1.122,10.624-2.787c3.041-1.664,5.523-3.871,7.271-6.037v-3.461v-3.46
			c-1.956-1.245-4.484-2.498-7.328-3.438C452.855,231.679,449.698,231.051,446.487,231.051"/>
	</g>
	<g>
		<defs>
			<rect id="SVGID_9_" x="53.428" y="88.667" width="526.804" height="298.522"/>
		</defs>
		<clipPath id="SVGID_10_">
			<use xlink:href="#SVGID_9_"  overflow="visible"/>
		</clipPath>
		<path clip-path="url(#SVGID_10_)" fill="#24387C" d="M492.333,258.11c-0.393,0-0.748-0.157-1.006-0.416
			c-0.259-0.258-0.418-0.613-0.418-1.008V234.64V212.59h-4.404h-4.406c-0.392,0-0.748-0.16-1.006-0.417
			c-0.257-0.257-0.417-0.614-0.417-1.006v-2.308v-2.307c0-0.393,0.16-0.749,0.417-1.007c0.258-0.257,0.614-0.416,1.006-0.416h4.406
			h4.404v-4.166v-4.166c0-4.911,1.384-8.833,3.922-11.527c2.54-2.694,6.239-4.16,10.869-4.16c2.064,0,3.953,0.185,5.689,0.559
			c1.738,0.375,3.325,0.94,4.784,1.7c0.234,0.122,0.426,0.305,0.559,0.523s0.206,0.473,0.206,0.738v2.413v2.413
			c0,0.249-0.065,0.489-0.183,0.7c-0.118,0.209-0.291,0.389-0.505,0.518c-0.112,0.069-0.231,0.12-0.356,0.153
			c-0.124,0.035-0.251,0.052-0.38,0.052c-0.112,0-0.228-0.015-0.338-0.042c-0.111-0.027-0.22-0.068-0.323-0.123
			c-1.322-0.696-2.627-1.205-3.963-1.541c-1.336-0.335-2.702-0.497-4.146-0.497c-2.611,0-4.579,0.78-5.894,2.329
			c-1.314,1.55-1.976,3.869-1.976,6.946v3.588v3.589h8.32h8.319c0.395,0,0.749,0.159,1.008,0.416
			c0.258,0.258,0.416,0.614,0.416,1.007v2.307v2.308c0,0.392-0.158,0.749-0.416,1.006c-0.257,0.257-0.613,0.417-1.008,0.417h-8.319
			h-8.32v22.049v22.047c0,0.395-0.16,0.75-0.416,1.008c-0.259,0.259-0.615,0.416-1.009,0.416h-2.56H492.333z"/>
	</g>
	<g>
		<defs>
			<rect id="SVGID_11_" x="53.428" y="88.667" width="526.804" height="298.522"/>
		</defs>
		<clipPath id="SVGID_12_">
			<use xlink:href="#SVGID_11_"  overflow="visible"/>
		</clipPath>
		<path clip-path="url(#SVGID_12_)" fill="#24387C" d="M527.322,279.507c-1.818,0-3.408-0.152-4.766-0.456
			c-1.354-0.307-2.479-0.762-3.355-1.369c-0.192-0.131-0.347-0.309-0.451-0.509c-0.105-0.202-0.163-0.428-0.163-0.661v-2.413v-2.413
			c0-0.254,0.069-0.499,0.19-0.713c0.123-0.212,0.301-0.394,0.522-0.521c0.112-0.063,0.228-0.11,0.347-0.143
			c0.118-0.031,0.241-0.046,0.364-0.046c0.124,0,0.247,0.015,0.368,0.046c0.12,0.032,0.237,0.083,0.348,0.146
			c0.884,0.513,1.784,0.885,2.762,1.127c0.975,0.243,2.025,0.357,3.205,0.357c2.938,0,5.194-1.195,7.35-3.814
			c2.154-2.62,4.213-6.665,6.752-12.366l-11.401-24.302l-11.4-24.302c-0.104-0.22-0.148-0.459-0.133-0.695
			c0.015-0.235,0.088-0.467,0.22-0.672c0.131-0.206,0.308-0.37,0.517-0.485c0.206-0.114,0.441-0.175,0.684-0.175h2.872h2.872
			c0.277,0,0.543,0.081,0.767,0.225c0.224,0.144,0.409,0.351,0.524,0.602l9.264,20.078l9.265,20.078l8.969-20.07l8.968-20.069
			c0.114-0.257,0.299-0.468,0.524-0.614c0.228-0.146,0.493-0.229,0.775-0.229h2.819h2.82c0.24,0,0.474,0.062,0.68,0.173
			s0.384,0.274,0.515,0.478c0.131,0.202,0.206,0.432,0.224,0.666c0.02,0.233-0.022,0.471-0.121,0.691l-12.584,27.9l-12.583,27.899
			c-3.318,7.303-6.592,11.444-9.714,13.762C533.014,279.016,530.039,279.507,527.322,279.507"/>
	</g>
	<g>
		<defs>
			<rect id="SVGID_13_" x="53.428" y="88.667" width="526.804" height="298.522"/>
		</defs>
		<clipPath id="SVGID_14_">
			<use xlink:href="#SVGID_13_"  overflow="visible"/>
		</clipPath>
		<path clip-path="url(#SVGID_14_)" fill="#006EB7" d="M195.396,241.004c-9.945,12.777-33.03,23.352-54.34,24.308
			c-2.93,0.727-5.988,1.12-9.14,1.12c-21.084,0-38.179-17.263-38.179-38.563c0-0.655,0.037-1.332,0.108-2.028
			c-5.227,16.752-5.181,34.822,2.995,58.192c0,0.001,0,0.001,0.002,0.005c0.148,0.091,0.301,0.18,0.451,0.271
			c0.744,0.447,1.496,0.883,2.259,1.299c0.183,0.101,0.366,0.198,0.551,0.297c0.792,0.426,1.592,0.838,2.404,1.231
			c0.119,0.058,0.241,0.112,0.36,0.168c0.788,0.376,1.584,0.736,2.388,1.079c0.121,0.054,0.241,0.108,0.364,0.158
			c0.846,0.356,1.704,0.693,2.569,1.014c0.175,0.065,0.351,0.133,0.528,0.196c0.854,0.311,1.715,0.602,2.585,0.875
			c0.181,0.057,0.36,0.112,0.542,0.166c0.89,0.273,1.787,0.53,2.694,0.766c0.127,0.032,0.254,0.062,0.382,0.094
			c0.916,0.233,1.839,0.447,2.768,0.641c0.065,0.014,0.129,0.028,0.195,0.042c0.954,0.195,1.919,0.364,2.891,0.517
			c0.158,0.025,0.314,0.05,0.474,0.075c0.94,0.141,1.889,0.26,2.843,0.36c0.179,0.02,0.357,0.037,0.536,0.054
			c0.963,0.095,1.931,0.17,2.906,0.222c0.141,0.008,0.284,0.012,0.424,0.018c1.029,0.048,2.062,0.079,3.101,0.079
			c1.07,0,2.132-0.029,3.188-0.081c0.347-0.016,0.688-0.046,1.033-0.067c0.709-0.046,1.417-0.095,2.118-0.162
			c0.405-0.04,0.806-0.088,1.208-0.135c0.64-0.073,1.276-0.15,1.91-0.243c0.418-0.06,0.834-0.129,1.251-0.196
			c0.613-0.1,1.224-0.208,1.833-0.327c0.414-0.079,0.829-0.162,1.239-0.249c0.611-0.131,1.218-0.273,1.823-0.422
			c0.395-0.095,0.788-0.189,1.18-0.293c0.642-0.168,1.278-0.353,1.912-0.542c0.343-0.102,0.688-0.196,1.027-0.303
			c0.823-0.26,1.638-0.537,2.448-0.828c0.143-0.051,0.287-0.095,0.428-0.146c0.942-0.346,1.874-0.716,2.795-1.101
			c0.308-0.13,0.609-0.272,0.914-0.405c0.615-0.27,1.228-0.541,1.833-0.829c0.362-0.171,0.719-0.354,1.077-0.533
			c0.538-0.267,1.074-0.538,1.604-0.821c0.374-0.198,0.744-0.404,1.112-0.609c0.507-0.283,1.01-0.572,1.505-0.867
			c0.37-0.218,0.736-0.439,1.101-0.665c0.491-0.305,0.975-0.618,1.459-0.937c0.353-0.231,0.706-0.461,1.052-0.697
			c0.496-0.342,0.983-0.694,1.469-1.047c0.318-0.231,0.642-0.457,0.954-0.694c0.563-0.424,1.112-0.863,1.66-1.303
			c0.226-0.183,0.457-0.354,0.678-0.54c0.748-0.616,1.479-1.252,2.197-1.902c0.268-0.242,0.526-0.497,0.791-0.743
			c0.457-0.427,0.914-0.856,1.359-1.296c0.304-0.301,0.599-0.61,0.898-0.917c0.391-0.403,0.781-0.808,1.162-1.221
			c0.305-0.329,0.602-0.662,0.898-0.998c0.36-0.406,0.717-0.817,1.068-1.231c0.293-0.349,0.584-0.7,0.869-1.055
			c0.341-0.42,0.673-0.846,1.002-1.273c0.277-0.36,0.553-0.721,0.823-1.087c0.328-0.445,0.644-0.896,0.96-1.35
			c0.252-0.362,0.509-0.721,0.753-1.089c0.337-0.503,0.661-1.018,0.983-1.532c0.207-0.328,0.42-0.647,0.621-0.981
			c0.497-0.819,0.975-1.653,1.436-2.498c0.191-0.347,0.366-0.703,0.549-1.054c0.278-0.532,0.557-1.063,0.821-1.604
			c0.198-0.409,0.385-0.825,0.578-1.238c0.228-0.493,0.455-0.988,0.673-1.49c0.187-0.434,0.366-0.871,0.545-1.313
			c0.2-0.494,0.397-0.989,0.586-1.488c0.169-0.447,0.333-0.898,0.493-1.352c0.179-0.503,0.349-1.01,0.515-1.519
			c0.148-0.455,0.297-0.911,0.436-1.372c0.158-0.522,0.305-1.053,0.449-1.58c0.124-0.453,0.252-0.904,0.366-1.359
			c0.145-0.576,0.274-1.162,0.403-1.744c0.093-0.416,0.195-0.829,0.28-1.247c0.003-0.027,0.011-0.056,0.017-0.083
			C195.4,241,195.398,241.002,195.396,241.004"/>
	</g>
	<g>
		<defs>
			<rect id="SVGID_15_" x="53.428" y="88.667" width="526.804" height="298.522"/>
		</defs>
		<clipPath id="SVGID_16_">
			<use xlink:href="#SVGID_15_"  overflow="visible"/>
		</clipPath>
		<path clip-path="url(#SVGID_16_)" fill="#18AADC" d="M131.059,162.407c-1.131,0-2.257,0.029-3.377,0.086
			c-2.236,0.113-4.444,0.338-6.617,0.671c-31.5,4.813-55.631,32.023-55.631,64.869c0,1.022,0.031,2.037,0.077,3.047
			c0.01,0.212,0.02,0.424,0.031,0.636c0.056,1.006,0.129,2.008,0.229,3.001c0.004,0.041,0.01,0.079,0.014,0.119
			c0.098,0.956,0.223,1.904,0.362,2.849c0.029,0.204,0.06,0.409,0.092,0.613c0.152,0.969,0.32,1.933,0.515,2.886
			c0.02,0.1,0.044,0.198,0.065,0.298c0.181,0.874,0.384,1.741,0.6,2.601c0.048,0.196,0.096,0.394,0.148,0.59
			c0.243,0.927,0.501,1.847,0.783,2.756c0.044,0.139,0.09,0.277,0.135,0.417c0.254,0.808,0.526,1.607,0.812,2.401
			c0.067,0.185,0.131,0.37,0.2,0.555c0.326,0.879,0.667,1.75,1.029,2.612c0.071,0.169,0.146,0.335,0.22,0.505
			c0.32,0.746,0.655,1.484,1,2.217c0.083,0.174,0.162,0.348,0.247,0.521c0.401,0.827,0.821,1.646,1.257,2.454
			c0.1,0.187,0.206,0.372,0.308,0.559c0.384,0.696,0.779,1.384,1.186,2.063c0.094,0.156,0.183,0.313,0.277,0.467
			c0.474,0.774,0.966,1.538,1.469,2.291c0.131,0.197,0.266,0.39,0.399,0.584c0.445,0.65,0.902,1.294,1.371,1.928
			c0.098,0.131,0.191,0.266,0.291,0.397c0.526,0.701,1.068,1.388,1.621,2.067c0,0.002,0,0.002,0,0.004
			c0.033,0.041,0.065,0.077,0.098,0.118c0.143,0.171,0.287,0.343,0.432,0.515c0.205,0.244,0.405,0.489,0.613,0.73
			c0.127,0.148,0.258,0.291,0.386,0.438c0.189,0.216,0.38,0.432,0.572,0.646c0.091,0.103,0.179,0.208,0.272,0.309
			c0.212,0.231,0.428,0.456,0.642,0.684c0.208,0.222,0.415,0.445,0.625,0.663c0.193,0.199,0.39,0.396,0.584,0.594
			c0.148,0.15,0.295,0.301,0.443,0.447c0.112,0.11,0.224,0.22,0.337,0.33c0.233,0.229,0.468,0.454,0.706,0.68
			c0.233,0.218,0.464,0.438,0.7,0.655c0.065,0.061,0.129,0.122,0.194,0.182c0.095,0.087,0.189,0.174,0.284,0.26
			c0.077,0.067,0.154,0.136,0.231,0.205c0.247,0.22,0.498,0.439,0.748,0.657c0.233,0.202,0.466,0.404,0.702,0.603
			c0.125,0.108,0.252,0.214,0.379,0.32c0.17,0.139,0.339,0.277,0.509,0.416c0.199,0.162,0.397,0.326,0.598,0.486
			c0.362,0.289,0.732,0.572,1.103,0.854c0.135,0.104,0.266,0.21,0.403,0.313c0.106,0.079,0.216,0.154,0.322,0.233
			c0.401,0.297,0.804,0.592,1.212,0.879c0.208,0.148,0.42,0.291,0.632,0.436c0.05,0.034,0.1,0.069,0.152,0.105
			c0.158,0.108,0.316,0.22,0.474,0.326c0.116,0.079,0.231,0.154,0.349,0.231c0.228,0.15,0.459,0.298,0.69,0.448
			c0.316,0.205,0.634,0.407,0.956,0.605c0.11,0.067,0.216,0.139,0.326,0.206c0,0,0-0.002,0-0.004
			c-0.002-0.002-0.002-0.004-0.002-0.005c-8.176-23.37-8.222-41.438-2.995-58.191c0.6-5.975,3.697-13.399,7.885-21.041
			c11.029-20.123,29.625-41.742,30.168-42.373c0.006-0.007,0.012-0.015,0.014-0.017
			C131.629,162.409,131.344,162.407,131.059,162.407"/>
	</g>
	<g>
		<defs>
			<rect id="SVGID_17_" x="53.428" y="88.667" width="526.804" height="298.522"/>
		</defs>
		<clipPath id="SVGID_18_">
			<use xlink:href="#SVGID_17_"  overflow="visible"/>
		</clipPath>
		<path clip-path="url(#SVGID_18_)" fill="#24387C" d="M131.924,162.429c11.124,33.247,38.175,44.147,38.175,65.44
			c0,18.119-12.372,33.307-29.042,37.444c21.31-0.958,44.395-11.53,54.34-24.31c0.842-4.194,1.29-8.529,1.29-12.971
			C196.686,192.079,167.769,162.895,131.924,162.429"/>
	</g>
</g>
</svg>
