<?xml version="1.0" encoding="utf-8"?>
<!-- Generator: Adobe Illustrator 16.0.0, SVG Export Plug-In . SVG Version: 6.00 Build 0)  -->
<!DOCTYPE svg PUBLIC "-//W3C//DTD SVG 1.1//EN" "http://www.w3.org/Graphics/SVG/1.1/DTD/svg11.dtd">
<svg version="1.1" id="Layer_1" xmlns="http://www.w3.org/2000/svg" xmlns:xlink="http://www.w3.org/1999/xlink" x="0px" y="0px"
	 width="640px" height="480px" viewBox="0 0 640 480" style="enable-background:new 0 0 640 480;" xml:space="preserve">
<style type="text/css">
<![CDATA[
	.st0{enable-background:new    ;}
	.st1{fill:#F7931E;}
	.st2{fill:none;}
	.st3{stroke:#FFFFFF;stroke-width:4;stroke-miterlimit:10;}
]]>
</style>
<rect x="79.522" y="70.701" width="473.001" height="353"/>
<rect x="114.997" y="99.383" class="st3" width="402.052" height="300.049"/>
<rect x="116.622" y="100.363" class="st2" width="400.179" height="297.6"/>
<g class="st0">
	<path class="st1" d="M186.315,224.621h-20.525v18.944h22.875v5.69h-29.69v-52.543h28.515v5.691h-21.7v16.604h20.525V224.621z"/>
	<path class="st1" d="M200.495,211.523l5.405,8.108c1.41,2.104,2.585,4.054,3.839,6.158h0.235c1.253-2.261,2.507-4.209,3.76-6.236
		l5.327-8.03h7.442l-12.926,18.242l13.317,19.489h-7.833l-5.563-8.497c-1.488-2.183-2.742-4.288-4.073-6.549h-0.157
		c-1.253,2.261-2.585,4.288-3.995,6.549l-5.484,8.497h-7.599l13.474-19.256l-12.848-18.476H200.495z"/>
	<path class="st1" d="M259.406,247.852c-1.802,0.936-5.797,2.183-10.889,2.183c-11.438,0-18.879-7.718-18.879-19.255
		c0-11.616,7.99-20.035,20.368-20.035c4.074,0,7.677,1.013,9.558,1.949l-1.567,5.301c-1.645-0.936-4.23-1.793-7.991-1.793
		c-8.695,0-13.396,6.393-13.396,14.266c0,8.731,5.64,14.11,13.161,14.11c3.917,0,6.502-1.013,8.46-1.871L259.406,247.852z"/>
	<path class="st1" d="M267.476,193.905h6.894v55.35h-6.894V193.905z"/>
	<path class="st1" d="M317.691,238.965c0,3.897,0.078,7.328,0.313,10.29h-6.11l-0.392-6.158h-0.156
		c-1.802,3.04-5.797,7.016-12.534,7.016c-5.954,0-13.083-3.274-13.083-16.526v-22.063h6.894v20.893
		c0,7.172,2.193,12.006,8.46,12.006c4.622,0,7.834-3.196,9.088-6.237c0.392-1.013,0.626-2.261,0.626-3.508v-23.153h6.895V238.965z"
		/>
	<path class="st1" d="M328.188,242.238c2.037,1.326,5.641,2.729,9.088,2.729c5.014,0,7.363-2.494,7.363-5.612
		c0-3.274-1.958-5.067-7.05-6.938c-6.815-2.417-10.027-6.159-10.027-10.68c0-6.081,4.935-11.07,13.082-11.07
		c3.839,0,7.207,1.091,9.322,2.339l-1.724,4.989c-1.488-0.936-4.229-2.183-7.755-2.183c-4.074,0-6.346,2.339-6.346,5.146
		c0,3.118,2.271,4.521,7.207,6.393c6.58,2.495,9.949,5.769,9.949,11.381c0,6.627-5.171,11.304-14.18,11.304
		c-4.151,0-7.99-1.013-10.653-2.572L328.188,242.238z"/>
	<path class="st1" d="M367.828,200.921c0.079,2.339-1.645,4.21-4.387,4.21c-2.429,0-4.151-1.871-4.151-4.21
		c0-2.417,1.802-4.288,4.309-4.288C366.184,196.634,367.828,198.505,367.828,200.921z M360.151,249.255v-37.731h6.894v37.731
		H360.151z"/>
	<path class="st1" d="M381.146,211.523l7.442,21.204c1.254,3.431,2.272,6.549,3.056,9.667h0.234
		c0.862-3.118,1.959-6.236,3.212-9.667l7.364-21.204h7.207l-14.885,37.731h-6.58l-14.414-37.731H381.146z"/>
	<path class="st1" d="M436.846,249.255l-0.549-4.756h-0.235c-2.115,2.963-6.188,5.613-11.594,5.613
		c-7.677,0-11.594-5.379-11.594-10.836c0-9.121,8.146-14.11,22.796-14.032v-0.78c0-3.118-0.861-8.731-8.617-8.731
		c-3.525,0-7.207,1.091-9.87,2.806l-1.567-4.521c3.134-2.027,7.678-3.352,12.456-3.352c11.594,0,14.414,7.874,14.414,15.436v14.11
		c0,3.274,0.157,6.471,0.627,9.043H436.846z M435.827,229.999c-7.521-0.155-16.06,1.17-16.06,8.498c0,4.443,2.977,6.548,6.502,6.548
		c4.936,0,8.069-3.118,9.166-6.314c0.234-0.701,0.392-1.481,0.392-2.183V229.999z"/>
	<path class="st1" d="M452.67,242.238c2.037,1.326,5.641,2.729,9.088,2.729c5.014,0,7.363-2.494,7.363-5.612
		c0-3.274-1.958-5.067-7.05-6.938c-6.815-2.417-10.027-6.159-10.027-10.68c0-6.081,4.935-11.07,13.082-11.07
		c3.839,0,7.207,1.091,9.322,2.339l-1.724,4.989c-1.488-0.936-4.229-2.183-7.755-2.183c-4.074,0-6.346,2.339-6.346,5.146
		c0,3.118,2.271,4.521,7.207,6.393c6.58,2.495,9.949,5.769,9.949,11.381c0,6.627-5.171,11.304-14.18,11.304
		c-4.151,0-7.99-1.013-10.653-2.572L452.67,242.238z"/>
</g>
<g class="st0">
	<path class="st1" d="M250.397,290.257h28.437v5.69h-21.622v17.463h19.977v5.612h-19.977V342.8h-6.815V290.257z"/>
	<path class="st1" d="M305.783,342.8l-0.548-4.756H305c-2.115,2.963-6.189,5.613-11.594,5.613c-7.677,0-11.594-5.379-11.594-10.836
		c0-9.121,8.147-14.11,22.797-14.032v-0.779c0-3.118-0.862-8.731-8.617-8.731c-3.525,0-7.208,1.091-9.871,2.807l-1.566-4.521
		c3.133-2.027,7.677-3.353,12.456-3.353c11.594,0,14.415,7.874,14.415,15.436v14.11c0,3.274,0.156,6.471,0.627,9.043H305.783z
		 M304.765,323.544c-7.521-0.155-16.059,1.17-16.059,8.498c0,4.443,2.977,6.548,6.502,6.548c4.936,0,8.069-3.118,9.166-6.314
		c0.235-0.701,0.392-1.481,0.392-2.183V323.544z"/>
	<path class="st1" d="M322.549,316.84c0-4.443-0.078-8.264-0.313-11.771h6.032l0.235,7.406h0.313
		c1.724-5.067,5.876-8.264,10.498-8.264c0.783,0,1.332,0.078,1.958,0.234v6.47c-0.705-0.155-1.41-0.233-2.35-0.233
		c-4.857,0-8.304,3.664-9.244,8.809c-0.157,0.936-0.313,2.027-0.313,3.196V342.8h-6.815V316.84z"/>
	<path class="st1" d="M381.695,323.622c0,13.955-9.714,20.035-18.88,20.035c-10.263,0-18.175-7.483-18.175-19.411
		c0-12.629,8.304-20.035,18.802-20.035C374.331,304.211,381.695,312.085,381.695,323.622z M351.613,324.012
		c0,8.264,4.778,14.5,11.516,14.5c6.58,0,11.516-6.158,11.516-14.655c0-6.393-3.212-14.5-11.359-14.5
		C355.139,309.356,351.613,316.84,351.613,324.012z"/>
</g>
<g>
</g>
<g>
</g>
<g>
</g>
<g>
</g>
<g>
</g>
<g>
</g>
<g>
</g>
<g>
</g>
<g>
</g>
<g>
</g>
<g>
</g>
<g>
</g>
<g>
</g>
<g>
</g>
<g>
</g>
</svg>
