<?xml version="1.0" encoding="utf-8"?>
<!-- Generator: Adobe Illustrator 16.0.0, SVG Export Plug-In . SVG Version: 6.00 Build 0)  -->
<!DOCTYPE svg PUBLIC "-//W3C//DTD SVG 1.1//EN" "http://www.w3.org/Graphics/SVG/1.1/DTD/svg11.dtd">
<svg version="1.1" id="Layer_1" xmlns="http://www.w3.org/2000/svg" xmlns:xlink="http://www.w3.org/1999/xlink" x="0px" y="0px"
	 width="548px" height="273.333px" viewBox="0 0 548 273.333" enable-background="new 0 0 548 273.333" xml:space="preserve">
<g>
	<path fill="#2D2D2C" d="M9.658,119.437c0-2.755,2.23-4.985,4.985-4.985c2.755,0,4.986,2.23,4.986,4.985v0.459
		c2.427-3.28,5.772-5.707,10.955-5.707c8.2,0,16.006,6.429,16.006,18.171v0.131c0,11.742-7.675,18.17-16.006,18.17
		c-5.313,0-8.593-2.428-10.955-5.248v10.496c0,2.754-2.23,4.984-4.986,4.984c-2.755,0-4.985-2.23-4.985-4.984V119.437z
		 M36.619,132.491v-0.131c0-5.839-3.936-9.709-8.593-9.709c-4.658,0-8.528,3.87-8.528,9.709v0.131c0,5.838,3.87,9.707,8.528,9.707
		C32.683,142.198,36.619,138.394,36.619,132.491z"/>
	<path fill="#2D2D2C" d="M54.393,106.711c0-2.755,2.23-4.985,4.985-4.985c2.755,0,4.985,2.23,4.985,4.985v38.702
		c0,2.756-2.23,4.986-4.985,4.986c-2.755,0-4.985-2.23-4.985-4.986V106.711z"/>
	<path fill="#2D2D2C" d="M71.643,139.903v-0.131c0-7.676,5.838-11.217,14.169-11.217c3.542,0,6.101,0.59,8.593,1.441v-0.59
		c0-4.132-2.559-6.428-7.544-6.428c-2.755,0-4.985,0.394-6.888,0.984c-0.59,0.197-0.984,0.262-1.443,0.262
		c-2.296,0-4.132-1.771-4.132-4.067c0-1.771,1.115-3.28,2.689-3.871c3.148-1.181,6.56-1.836,11.217-1.836
		c5.444,0,9.38,1.443,11.873,3.936c2.624,2.624,3.805,6.494,3.805,11.217v16.006c0,2.689-2.165,4.789-4.854,4.789
		c-2.886,0-4.789-2.035-4.789-4.133V146.2c-2.427,2.689-5.772,4.461-10.626,4.461C77.087,150.661,71.643,146.856,71.643,139.903z
		 M94.536,137.606v-1.77c-1.706-0.787-3.936-1.313-6.363-1.313c-4.264,0-6.888,1.705-6.888,4.854v0.131
		c0,2.689,2.23,4.264,5.444,4.264C91.388,143.772,94.536,141.216,94.536,137.606z"/>
	<path fill="#2D2D2C" d="M113.755,159.778c-1.443-0.523-3.149-1.705-3.149-4.131c0-2.428,1.902-4.068,3.936-4.068
		c0.787,0,1.247,0.131,1.64,0.264c0.853,0.262,1.377,0.393,2.099,0.393c1.771,0,2.624-0.328,3.542-2.1l0.328-0.787l-12.004-27.813
		c-0.262-0.656-0.525-1.64-0.525-2.296c0-2.821,2.165-4.789,4.92-4.789c2.493,0,3.936,1.377,4.789,3.739l7.609,20.467l7.347-20.401
		c0.787-2.099,2.23-3.805,4.789-3.805c2.558,0,4.723,1.968,4.723,4.592c0,0.787-0.262,1.902-0.459,2.361l-12.267,29.454
		c-2.952,7.15-5.904,9.84-11.873,9.84C116.969,160.698,115.395,160.37,113.755,159.778z"/>
</g>
<g>
	<path fill="#2D2D2C" d="M264.84,106.878c0-2.755,2.23-4.985,4.985-4.985c2.756,0,4.986,2.23,4.986,4.985v13.185
		c2.426-3.28,5.772-5.707,10.954-5.707c8.201,0,16.006,6.429,16.006,18.171v0.131c0,11.742-7.674,18.17-16.006,18.17
		c-5.313,0-8.592-2.428-10.954-5.248v0.066c0,2.689-2.23,4.92-4.986,4.92c-2.755,0-4.985-2.23-4.985-4.986V106.878z M291.8,132.658
		v-0.131c0-5.839-3.936-9.709-8.592-9.709c-4.658,0-8.529,3.87-8.529,9.709v0.131c0,5.838,3.871,9.707,8.529,9.707
		C287.865,142.365,291.8,138.561,291.8,132.658z"/>
	<path fill="#2D2D2C" d="M341.062,145.58c0,2.756-2.23,4.986-4.986,4.986c-2.754,0-4.984-2.23-4.984-4.986v-0.393
		c-2.297,2.951-5.248,5.641-10.299,5.641c-7.545,0-11.939-4.986-11.939-13.055v-18.169c0-2.755,2.23-4.985,4.986-4.985
		c2.754,0,4.984,2.23,4.984,4.985v15.021c0,4.723,2.23,7.15,6.035,7.15s6.232-2.428,6.232-7.15v-15.021
		c0-2.755,2.23-4.985,4.984-4.985c2.756,0,4.986,2.23,4.986,4.985V145.58z"/>
	<path fill="#2D2D2C" d="M349.062,146.826c-1.049-0.656-1.902-1.836-1.902-3.41c0-2.23,1.705-3.936,3.936-3.936
		c0.723,0,1.443,0.195,1.969,0.523c3.346,2.1,6.691,3.148,9.512,3.148c2.885,0,4.197-1.049,4.197-2.623v-0.131
		c0-2.166-3.41-2.887-7.281-4.068c-4.92-1.441-10.496-3.738-10.496-10.56v-0.131c0-7.15,5.773-11.151,12.857-11.151
		c3.674,0,7.479,0.984,10.891,2.689c1.441,0.722,2.361,2.034,2.361,3.739c0,2.23-1.771,3.936-4.002,3.936
		c-0.723,0-1.182-0.131-1.838-0.459c-2.82-1.377-5.51-2.23-7.607-2.23c-2.428,0-3.674,1.05-3.674,2.427v0.131
		c0,1.968,3.346,2.887,7.15,4.197c4.92,1.641,10.625,4.002,10.625,10.43v0.133c0,7.805-5.838,11.348-13.447,11.348
		C357.984,150.828,353.326,149.582,349.062,146.826z"/>
	<path fill="#2D2D2C" d="M382.777,106.616c0-2.886,2.428-4.658,5.576-4.658s5.576,1.771,5.576,4.658v0.131
		c0,2.887-2.428,4.723-5.576,4.723s-5.576-1.836-5.576-4.723V106.616z M383.369,119.604c0-2.755,2.229-4.985,4.984-4.985
		s4.986,2.23,4.986,4.985v25.976c0,2.756-2.23,4.986-4.986,4.986s-4.984-2.23-4.984-4.986V119.604z"/>
	<path fill="#2D2D2C" d="M402.716,119.604c0-2.755,2.23-4.985,4.986-4.985s4.986,2.23,4.986,4.985v0.394
		c2.295-2.952,5.246-5.642,10.299-5.642c7.543,0,11.938,4.985,11.938,13.054v18.17c0,2.756-2.23,4.986-4.984,4.986
		c-2.756,0-4.986-2.23-4.986-4.986v-15.021c0-4.723-2.23-7.15-6.035-7.15s-6.23,2.427-6.23,7.15v15.021
		c0,2.756-2.23,4.986-4.986,4.986s-4.986-2.23-4.986-4.986V119.604z"/>
	<path fill="#2D2D2C" d="M460.244,150.959c-10.563,0-18.367-7.412-18.367-18.17v-0.131c0-10.037,7.15-18.302,17.383-18.302
		c11.742,0,16.924,9.643,16.924,16.923c0,2.887-2.033,4.789-4.656,4.789h-19.746c0.984,4.527,4.133,6.889,8.594,6.889
		c2.756,0,5.051-0.854,7.084-2.361c0.723-0.525,1.379-0.787,2.428-0.787c2.23,0,3.869,1.705,3.869,3.936
		c0,1.311-0.59,2.295-1.311,2.951C469.361,149.32,465.359,150.959,460.244,150.959z M466.671,129.836
		c-0.59-4.459-3.213-7.477-7.412-7.477c-4.133,0-6.822,2.952-7.609,7.477H466.671z"/>
	<path fill="#2D2D2C" d="M482.873,146.826c-1.051-0.656-1.902-1.836-1.902-3.41c0-2.23,1.705-3.936,3.936-3.936
		c0.721,0,1.443,0.195,1.969,0.523c3.344,2.1,6.689,3.148,9.51,3.148c2.887,0,4.199-1.049,4.199-2.623v-0.131
		c0-2.166-3.412-2.887-7.281-4.068c-4.92-1.441-10.496-3.738-10.496-10.56v-0.131c0-7.15,5.773-11.151,12.857-11.151
		c3.674,0,7.479,0.984,10.889,2.689c1.443,0.722,2.361,2.034,2.361,3.739c0,2.23-1.77,3.936-4,3.936
		c-0.723,0-1.182-0.131-1.838-0.459c-2.82-1.377-5.51-2.23-7.609-2.23c-2.426,0-3.674,1.05-3.674,2.427v0.131
		c0,1.968,3.346,2.887,7.15,4.197c4.92,1.641,10.627,4.002,10.627,10.43v0.133c0,7.805-5.838,11.348-13.447,11.348
		C491.792,150.828,487.136,149.582,482.873,146.826z"/>
	<path fill="#2D2D2C" d="M515.146,146.826c-1.051-0.656-1.902-1.836-1.902-3.41c0-2.23,1.705-3.936,3.936-3.936
		c0.721,0,1.441,0.195,1.967,0.523c3.346,2.1,6.691,3.148,9.512,3.148c2.887,0,4.199-1.049,4.199-2.623v-0.131
		c0-2.166-3.412-2.887-7.281-4.068c-4.92-1.441-10.496-3.738-10.496-10.56v-0.131c0-7.15,5.771-11.151,12.857-11.151
		c3.672,0,7.477,0.984,10.889,2.689c1.443,0.722,2.361,2.034,2.361,3.739c0,2.23-1.771,3.936-4.002,3.936
		c-0.721,0-1.18-0.131-1.836-0.459c-2.82-1.377-5.51-2.23-7.609-2.23c-2.428,0-3.674,1.05-3.674,2.427v0.131
		c0,1.968,3.346,2.887,7.15,4.197c4.92,1.641,10.627,4.002,10.627,10.43v0.133c0,7.805-5.838,11.348-13.447,11.348
		C524.066,150.828,519.408,149.582,515.146,146.826z"/>
</g>
<path fill="#8CC74B" d="M237.793,109.29l-31.629-18.261c-0.877-0.506-1.855-0.76-2.834-0.76s-1.958,0.253-2.834,0.76l-31.629,18.261
	c-1.754,1.013-2.835,2.884-2.835,4.91v36.523c0,2.025,1.081,3.896,2.835,4.91l31.629,18.26c0.877,0.508,1.855,0.76,2.834,0.76
	s1.958-0.252,2.834-0.76l31.629-18.26c1.754-1.014,2.835-2.885,2.835-4.91V114.2C240.628,112.174,239.547,110.303,237.793,109.29z
	 M224.161,135.136l-27.053,15.619c-0.434,0.251-0.917,0.375-1.401,0.375s-0.968-0.124-1.401-0.375
	c-0.867-0.5-1.401-1.425-1.401-2.426v-31.24c0-1.001,0.534-1.927,1.401-2.427c0.434-0.25,0.917-0.375,1.401-0.375
	s0.968,0.125,1.401,0.375l27.053,15.62c0.867,0.5,1.401,1.426,1.401,2.427C225.562,133.71,225.028,134.635,224.161,135.136z"/>
</svg>
